<svg width="240" height="60" viewBox="0 0 240 60" fill="none" xmlns="http://www.w3.org/2000/svg">
  <!-- Geometric Icon with Shades -->
  <g transform="translate(10, 10) scale(0.35)">
    <!-- Top Diamond (2 shades) -->
    <path d="M64 12L88 36L64 48L40 36L64 12Z" fill="#34D399" />
    <path d="M64 48L88 36L64 60L40 36L64 48Z" fill="#059669" />
    
    <!-- Bottom Diamond (2 shades) -->
    <path d="M64 116L40 92L64 80L88 92L64 116Z" fill="#34D399" />
    <path d="M64 80L40 92L64 68L88 92L64 80Z" fill="#059669" />
    
    <!-- Left Diamond (2 shades) -->
    <path d="M12 64L36 40L48 64L36 88L12 64Z" fill="#34D399" />
    <path d="M48 64L36 40L60 64L36 88L48 64Z" fill="#059669" />
    
    <!-- Right Diamond (2 shades) -->
    <path d="M116 64L92 88L80 64L92 40L116 64Z" fill="#34D399" />
    <path d="M80 64L92 88L68 64L92 40L80 64Z" fill="#059669" />
    
    <!-- Center Diamond (Standalone, not connected) -->
    <path d="M64 58L70 64L64 70L58 64L64 58Z" fill="#10B981" />
  </g>
  
  <!-- Text -->
  <text x="65" y="38" font-family="Inter, sans-serif" font-size="22" font-weight="800" fill="#FFFFFF" letter-spacing="-0.02em">OTP EDGE</text>
</svg>
