<svg width="240" height="60" viewBox="0 0 240 60" fill="none" xmlns="http://www.w3.org/2000/svg">
  <svg x="10" y="10" width="40" height="40" viewBox="0 -960 960 960">
    <path fill="#4edea3" d="M480-375 375-480l105-105 105 105-105 105Zm-85-294-83-83 168-168 168 168-83 83-85-85-85 85ZM208-312 40-480l168-168 83 83-85 85 85 85-83 83Zm544 0-83-83 85-85-85-85 83-83 168 168-168 168ZM480-40 312-208l83-83 85 85 85-85 83 83L480-40Z"/>
  </svg>
  <text x="60" y="38" font-family="Inter, sans-serif" font-size="22" font-weight="800" fill="#000000" letter-spacing="-0.02em">OTP EDGE</text>
</svg>
