<svg width="800" height="400" viewBox="0 0 800 400" xmlns="http://www.w3.org/2000/svg">
  <rect width="800" height="400" fill="#0f172a" rx="12" />
  <rect x="50" y="50" width="700" height="300" fill="#1e293b" rx="8" stroke="#334155" stroke-width="2" />
  
  <!-- Geometric Logo in Hero -->
  <g transform="translate(80, 80) scale(0.6)">
    <path d="M64 12L88 36L64 60L40 36L64 12Z" fill="#00DC82" />
    <path d="M64 68L88 92L64 116L40 92L64 68Z" fill="#00DC82" />
    <path d="M12 64L36 88L60 64L36 40L12 64Z" fill="#00DC82" />
    <path d="M68 64L92 88L116 64L92 40L68 64Z" fill="#00DC82" />
    <path d="M64 58L70 64L64 70L58 64L64 58Z" fill="#00DC82" />
  </g>

  <text x="180" y="110" font-family="Inter, sans-serif" font-size="24" font-weight="700" fill="#f8fafc">WhatsApp OTP Infrastructure</text>
  <rect x="180" y="150" width="470" height="20" fill="#334155" rx="4" />
  <rect x="180" y="190" width="370" height="20" fill="#334155" rx="4" />
  <rect x="180" y="230" width="420" height="20" fill="#334155" rx="4" />
</svg>
